<svg width="42" height="44" viewBox="0 0 42 44" fill="none" xmlns="http://www.w3.org/2000/svg">
<g filter="url(#filter0_i_174_43)">
<path fill-rule="evenodd" clip-rule="evenodd" d="M32 4C33.1046 4 34 3.10457 34 2C34 0.895431 33.1046 0 32 0C30.8954 0 30 0.895431 30 2C30 3.10457 30.8954 4 32 4ZM21 2C22.7601 2 24.4908 2.0732 26.161 2.21639C27.2615 2.31074 28.0772 3.27938 27.9829 4.37991C27.8885 5.48045 26.9199 6.29612 25.8193 6.20177C24.2634 6.06838 22.6467 6 21 6C16.085 6 11.4981 6.61266 8.16723 7.66452C6.63206 8.14932 5.44137 8.70588 4.68963 9.26713C4.38306 9.49602 4.17596 9.70629 4.06444 9.8784L4.03692 9.92258L4.0015 9.99303V10.007L4.01834 10.0444C4.02811 10.063 4.04276 10.0881 4.06444 10.1216C4.17596 10.2937 4.38306 10.504 4.68963 10.7329C5.44137 11.2941 6.63206 11.8507 8.16723 12.3355C11.4981 13.3873 16.085 14 21 14C25.915 14 30.5019 13.3873 33.8328 12.3355C35.3679 11.8507 36.5586 11.2941 37.3104 10.7329C37.6169 10.504 37.824 10.2937 37.9356 10.1216L37.9631 10.0774L38 10C38 9.80152 37.4826 9.24289 36.1998 8.59846C35.2128 8.1026 34.8147 6.9005 35.3105 5.91348C35.8064 4.92646 37.0085 4.5283 37.9955 5.02416C40.4857 6.27518 42 7.91017 42 10C42 12.3682 39.9305 14.2772 36.5301 15.6356L35.9966 15.8402C35.8153 15.907 35.6306 15.9723 35.4427 16.0361L34.8689 16.2231C34.6744 16.284 34.4768 16.3434 34.276 16.4012L33.6644 16.5704C33.3541 16.6527 33.037 16.7316 32.7135 16.8071L32.058 16.9535C31.9474 16.9771 31.8361 17.0003 31.7241 17.0232L31.0441 17.1557C30.9294 17.177 30.8141 17.1979 30.6982 17.2184L29.9949 17.3368C29.8765 17.3558 29.7574 17.3743 29.6378 17.3925L28.9127 17.4967C28.7907 17.5133 28.6681 17.5295 28.5449 17.5452L27.7993 17.635L27.0408 17.7152L26.2699 17.7855C26.011 17.8074 25.7501 17.8275 25.4873 17.8461L24.6936 17.8967C24.4272 17.9119 24.1591 17.9255 23.8893 17.9374L23.0751 17.968C22.8021 17.9765 22.5276 17.9833 22.2516 17.9884L21.4192 17.9987C21.2798 17.9996 21.1401 18 21 18L20.1635 17.9949C19.8861 17.9914 19.6101 17.9863 19.3355 17.9795L18.5166 17.9539C18.2452 17.9437 17.9753 17.9318 17.7072 17.9183L16.9082 17.8726C16.6436 17.8558 16.3808 17.8372 16.1199 17.817L15.3431 17.7516C15.2146 17.7398 15.0867 17.7277 14.9592 17.7152L14.2007 17.635L13.4551 17.5452L12.723 17.4458C12.6021 17.4284 12.4819 17.4107 12.3622 17.3925L11.6516 17.2788C11.5344 17.2591 11.4178 17.2389 11.3018 17.2184L10.6139 17.0906C10.3873 17.0464 10.1632 17.0007 9.94195 16.9535L9.28649 16.8071C8.96299 16.7316 8.64591 16.6527 8.33558 16.5704L7.72402 16.4012C7.52324 16.3434 7.32556 16.284 7.13107 16.2231L6.55734 16.0361C6.36936 15.9723 6.18468 15.907 6.0034 15.8402L5.46987 15.6356C2.0695 14.2772 0 12.3682 0 10C0 7.63181 2.0695 5.72285 5.46987 4.36442L6.0034 4.15979C6.18468 4.09304 6.36936 4.02774 6.55734 3.96392L7.13107 3.77688C7.32556 3.71602 7.52324 3.65664 7.72402 3.59875L8.33558 3.42961C8.64591 3.34729 8.96299 3.26837 9.28649 3.19289L9.94195 3.04652C10.0526 3.0229 10.1639 2.99965 10.2759 2.9768L10.9559 2.84432C11.0706 2.82302 11.1859 2.80211 11.3018 2.78158L12.0051 2.66316C12.1235 2.64421 12.2426 2.62565 12.3622 2.60749L13.0873 2.50329C13.2093 2.48672 13.3319 2.47055 13.4551 2.45478L14.2007 2.36496L14.9592 2.28483L15.7301 2.21446C15.989 2.19264 16.2499 2.17245 16.5127 2.15392L17.3064 2.10329C17.5728 2.08807 17.8409 2.07451 18.1107 2.06263L18.9249 2.03203C19.1979 2.02352 19.4724 2.01669 19.7484 2.01156L20.5808 2.00129C20.7202 2.00043 20.8599 2 21 2ZM33.9249 19.3135C34.8563 18.7198 36.0927 18.9935 36.6865 19.9249C37.2802 20.8563 37.0065 22.0927 36.0751 22.6865C32.5443 24.9373 26.8768 26 19 26C15.1101 26 11.7672 25.7394 8.96328 25.2118C7.87776 25.0075 7.16334 23.962 7.36759 22.8764C7.57184 21.7909 8.61741 21.0765 9.70293 21.2808C12.2402 21.7582 15.3418 22 19 22C19.9208 22 20.8057 21.9846 21.6545 21.954L22.6559 21.9101C27.9039 21.6374 31.6736 20.7487 33.9249 19.3135ZM12.0945 29.3261C11.17 28.7216 9.93054 28.981 9.32606 29.9055C8.72159 30.83 8.98101 32.0695 9.9055 32.6739C12.8525 34.6009 17.5281 35.5 24 35.5C26.7797 35.5 29.221 35.333 31.3291 34.995C32.4197 34.8202 33.1621 33.7943 32.9873 32.7037C32.8124 31.613 31.7866 30.8706 30.6959 31.0455C28.8138 31.3472 26.5801 31.5 24 31.5C18.2366 31.5 14.2455 30.7325 12.0945 29.3261ZM7.34615 38.8754C7.9362 38.0077 9.08838 37.7504 9.98525 38.2594L10.1246 38.3461C11.6807 39.4043 14.6592 40 19 40C20.6507 40 22.1118 39.9145 23.3802 39.7458C24.4752 39.6001 25.4809 40.3697 25.6265 41.4646C25.7722 42.5595 25.0026 43.5652 23.9077 43.7108C22.4531 43.9044 20.8182 44 19 44C13.929 44 10.2408 43.2624 7.87538 41.6539C6.96198 41.0327 6.72504 39.7888 7.34615 38.8754ZM29 42C30.1046 42 31 41.1046 31 40C31 38.8954 30.1046 38 29 38C27.8954 38 27 38.8954 27 40C27 41.1046 27.8954 42 29 42ZM7 35C7 36.1046 6.10457 37 5 37C3.89543 37 3 36.1046 3 35C3 33.8954 3.89543 33 5 33C6.10457 33 7 33.8954 7 35ZM37 33C38.1046 33 39 32.1046 39 31C39 29.8954 38.1046 29 37 29C35.8954 29 35 29.8954 35 31C35 32.1046 35.8954 33 37 33ZM5 21C5 22.1046 4.10457 23 3 23C1.89543 23 1 22.1046 1 21C1 19.8954 1.89543 19 3 19C4.10457 19 5 19.8954 5 21Z" fill="url(#paint0_linear_174_43)"/>
</g>
<defs>
<filter id="filter0_i_174_43" x="0" y="0" width="42" height="46" filterUnits="userSpaceOnUse" color-interpolation-filters="sRGB">
<feFlood flood-opacity="0" result="BackgroundImageFix"/>
<feBlend mode="normal" in="SourceGraphic" in2="BackgroundImageFix" result="shape"/>
<feColorMatrix in="SourceAlpha" type="matrix" values="0 0 0 0 0 0 0 0 0 0 0 0 0 0 0 0 0 0 127 0" result="hardAlpha"/>
<feOffset dy="2"/>
<feGaussianBlur stdDeviation="4"/>
<feComposite in2="hardAlpha" operator="arithmetic" k2="-1" k3="1"/>
<feColorMatrix type="matrix" values="0 0 0 0 0.831313 0 0 0 0 0.98288 0 0 0 0 0.98288 0 0 0 1 0"/>
<feBlend mode="normal" in2="shape" result="effect1_innerShadow_174_43"/>
</filter>
<linearGradient id="paint0_linear_174_43" x1="0" y1="0" x2="0" y2="44" gradientUnits="userSpaceOnUse">
<stop stop-color="#8FD5FF"/>
<stop offset="1" stop-color="#4CAFFF"/>
</linearGradient>
</defs>
</svg>
