<svg width="40" height="40" viewBox="0 0 40 40" fill="none" xmlns="http://www.w3.org/2000/svg">
<path d="M22.74 17L22.394 26M17.606 26L17.26 17M27.228 13.79C27.57 13.842 27.91 13.897 28.25 13.956M27.228 13.79L26.16 27.673C26.1164 28.2382 25.8611 28.7661 25.445 29.1512C25.029 29.5363 24.4829 29.7501 23.916 29.75H16.084C15.5171 29.7501 14.971 29.5363 14.555 29.1512C14.1389 28.7661 13.8836 28.2382 13.84 27.673L12.772 13.79M27.228 13.79C26.0739 13.6155 24.9138 13.4831 23.75 13.393M12.772 13.79C12.43 13.841 12.09 13.896 11.75 13.955M12.772 13.79C13.9261 13.6155 15.0862 13.4831 16.25 13.393M23.75 13.393V12.477C23.75 11.297 22.84 10.313 21.66 10.276C20.5536 10.2406 19.4464 10.2406 18.34 10.276C17.16 10.313 16.25 11.298 16.25 12.477V13.393M23.75 13.393C21.2537 13.2 18.7463 13.2 16.25 13.393" stroke="#C10700" stroke-width="1.6" stroke-linecap="round" stroke-linejoin="round"/>
</svg>
