<svg width="40" height="40" viewBox="0 0 40 40" fill="none" xmlns="http://www.w3.org/2000/svg">
<rect width="40" height="40" rx="8" fill="#F5F5F5"/>
<path d="M28.5488 28.45L22.7988 22.7C22.2655 23.1333 21.6738 23.4583 21.0238 23.675C20.3738 23.8917 19.6988 24 18.9988 24C18.2988 24 17.6322 23.8958 16.9988 23.6875C16.3655 23.4792 15.7822 23.1833 15.2488 22.8L16.6988 21.35C17.0322 21.55 17.3905 21.7083 17.7738 21.825C18.1572 21.9417 18.5655 22 18.9988 22C20.2488 22 21.3113 21.5625 22.1863 20.6875C23.0613 19.8125 23.4988 18.75 23.4988 17.5C23.4988 16.25 23.0613 15.1875 22.1863 14.3125C21.3113 13.4375 20.2488 13 18.9988 13C17.8488 13 16.853 13.3875 16.0113 14.1625C15.1697 14.9375 14.6822 15.9 14.5488 17.05L15.7988 15.8L17.1988 17.2L13.4988 20.9L9.79883 17.2L11.1988 15.8L12.5488 17.1C12.6488 15.3833 13.3155 13.9375 14.5488 12.7625C15.7822 11.5875 17.2655 11 18.9988 11C20.8155 11 22.353 11.6292 23.6113 12.8875C24.8697 14.1458 25.4988 15.6833 25.4988 17.5C25.4988 18.2 25.3905 18.8833 25.1738 19.55C24.9572 20.2167 24.6322 20.8 24.1988 21.3L29.9488 27.05L28.5488 28.45Z" fill="#7E7E7E"/>
</svg>
