<svg width="48" height="48" viewBox="0 0 48 48" fill="none" xmlns="http://www.w3.org/2000/svg">
<rect width="48" height="48" rx="24" fill="white"/>
<path d="M21.5937 15.94C21.6837 15.398 22.1537 15 22.7037 15H25.2967C25.8467 15 26.3167 15.398 26.4067 15.94L26.6197 17.221C26.6827 17.595 26.9327 17.907 27.2647 18.091C27.3387 18.131 27.4117 18.174 27.4847 18.218C27.8097 18.414 28.2047 18.475 28.5597 18.342L29.7767 17.886C30.0261 17.7922 30.3007 17.79 30.5516 17.8797C30.8025 17.9694 31.0134 18.1453 31.1467 18.376L32.4427 20.623C32.5758 20.8537 32.6227 21.1241 32.5751 21.3862C32.5275 21.6482 32.3884 21.8848 32.1827 22.054L31.1797 22.881C30.8867 23.122 30.7417 23.494 30.7497 23.873C30.7511 23.958 30.7511 24.043 30.7497 24.128C30.7417 24.506 30.8867 24.878 31.1797 25.119L32.1837 25.946C32.6077 26.296 32.7177 26.901 32.4437 27.376L31.1457 29.623C31.0126 29.8536 30.8019 30.0296 30.5512 30.1195C30.3005 30.2094 30.0261 30.2074 29.7767 30.114L28.5597 29.658C28.2047 29.525 27.8097 29.586 27.4837 29.782C27.4112 29.8261 27.3379 29.8688 27.2637 29.91C26.9327 30.093 26.6827 30.405 26.6197 30.779L26.4067 32.06C26.3167 32.603 25.8467 33 25.2967 33H22.7027C22.1527 33 21.6837 32.602 21.5927 32.06L21.3797 30.779C21.3177 30.405 21.0677 30.093 20.7357 29.909C20.6616 29.8681 20.5882 29.8258 20.5157 29.782C20.1907 29.586 19.7957 29.525 19.4397 29.658L18.2227 30.114C17.9734 30.2075 17.6991 30.2096 17.4484 30.1199C17.1978 30.0302 16.987 29.8545 16.8537 29.624L15.5567 27.377C15.4237 27.1463 15.3768 26.8759 15.4244 26.6138C15.472 26.3518 15.611 26.1152 15.8167 25.946L16.8207 25.119C17.1127 24.879 17.2577 24.506 17.2507 24.128C17.2492 24.043 17.2492 23.958 17.2507 23.873C17.2577 23.493 17.1127 23.122 16.8207 22.881L15.8167 22.054C15.6113 21.8849 15.4724 21.6484 15.4248 21.3866C15.3772 21.1248 15.4239 20.8546 15.5567 20.624L16.8537 18.377C16.9869 18.1461 17.1977 17.9701 17.4486 17.8801C17.6995 17.7902 17.9742 17.7923 18.2237 17.886L19.4397 18.342C19.7957 18.475 20.1907 18.414 20.5157 18.218C20.5877 18.174 20.6617 18.132 20.7357 18.09C21.0677 17.907 21.3177 17.595 21.3797 17.221L21.5937 15.94Z" stroke="#0034AD" stroke-width="1.5" stroke-linecap="round" stroke-linejoin="round"/>
<path d="M27 24C27 24.7956 26.6839 25.5587 26.1213 26.1213C25.5587 26.6839 24.7956 27 24 27C23.2044 27 22.4413 26.6839 21.8787 26.1213C21.3161 25.5587 21 24.7956 21 24C21 23.2044 21.3161 22.4413 21.8787 21.8787C22.4413 21.3161 23.2044 21 24 21C24.7956 21 25.5587 21.3161 26.1213 21.8787C26.6839 22.4413 27 23.2044 27 24Z" stroke="#0034AD" stroke-width="1.5" stroke-linecap="round" stroke-linejoin="round"/>
</svg>
