<svg width="48" height="48" viewBox="0 0 48 48" fill="none" xmlns="http://www.w3.org/2000/svg">
<path fill-rule="evenodd" clip-rule="evenodd" d="M30 2C34.4183 2 38 5.58172 38 9.9999V25.055L38.2687 25.303C40.537 27.4586 41.9003 30.4345 41.9947 33.6426L42 34C42 40.6274 36.6274 46 30 46C23.3726 46 18 40.6274 18 34C18 30.5361 19.4796 27.3151 21.9881 25.0659L22 25.055V10C22 5.66509 25.4478 2.13546 29.7508 2.00381L30 2ZM30 6C27.7909 6 26 7.79086 26 9.99997L26.0003 26.9982L25.2013 27.5983C23.1993 29.102 22 31.4495 22 34C22 38.4183 25.5817 42 30 42C34.4183 42 38 38.4183 38 34C38 31.4498 36.8011 29.1026 34.7995 27.5989L34.0008 26.9989L34 10C34 7.79086 32.2091 6 30 6ZM31 17C31.5523 17 32 17.4477 32 18L32.0007 28.3417C34.3307 29.1655 36 31.3878 36 34C36 37.3137 33.3137 40 30 40C26.6863 40 24 37.3137 24 34C24 31.3874 25.6698 29.1649 28.0003 28.3413L28 18C28 17.4477 28.4477 17 29 17H31Z" fill="url(#paint0_linear_4_10220)"/>
<path fill-rule="evenodd" clip-rule="evenodd" d="M11 28C14.866 28 18 24.866 18 21C18 19.067 17.7325 18.0598 16.9231 16.1538C16.281 14.6421 16 14 15 12C14.6667 13.3333 14 14.3333 13 15C13 12.3333 11.6667 9.66667 9 7C9 9.15385 8.75744 12.4113 6.5 15C5.29245 16.3848 4 19.067 4 21C4 24.866 7.13401 28 11 28Z" fill="url(#paint1_linear_4_10220)"/>
<defs>
<linearGradient id="paint0_linear_4_10220" x1="19.6813" y1="2" x2="52.2767" y2="11.7924" gradientUnits="userSpaceOnUse">
<stop stop-color="#73C1FF"/>
<stop offset="1" stop-color="#B4E6FB"/>
</linearGradient>
<linearGradient id="paint1_linear_4_10220" x1="11" y1="7" x2="11" y2="28" gradientUnits="userSpaceOnUse">
<stop stop-color="#FFE768"/>
<stop offset="1" stop-color="#FF2919"/>
</linearGradient>
</defs>
</svg>
