<svg width="44" height="44" viewBox="0 0 44 44" fill="none" xmlns="http://www.w3.org/2000/svg">
<g filter="url(#filter0_i_174_42)">
<path fill-rule="evenodd" clip-rule="evenodd" d="M22 38C23.0544 38 23.9182 38.8159 23.9945 39.8507L24 40V42C24 43.1046 23.1046 44 22 44C20.9456 44 20.0818 43.1841 20.0055 42.1493L20 42V40C20 38.8954 20.8954 38 22 38ZM22 0C23.0544 0 23.9182 0.815878 23.9945 1.85074L24 2V4C24 5.10457 23.1046 6 22 6C20.9456 6 20.0818 5.18412 20.0055 4.14926L20 4V2C20 0.89543 20.8954 0 22 0ZM6 22C6 23.0544 5.18412 23.9182 4.14926 23.9945L4 24H2C0.89543 24 0 23.1046 0 22C0 20.9456 0.815878 20.0818 1.85074 20.0055L2 20H4C5.10457 20 6 20.8954 6 22ZM44 22C44 23.0544 43.1841 23.9182 42.1493 23.9945L42 24H40C38.8954 24 38 23.1046 38 22C38 20.9456 38.8159 20.0818 39.8507 20.0055L40 20H42C43.1046 20 44 20.8954 44 22ZM10.6863 10.6863C9.94075 11.4318 8.75303 11.4657 7.96729 10.788L7.85786 10.6863L6.44365 9.27208C5.6626 8.49103 5.6626 7.2247 6.44365 6.44365C7.1892 5.6981 8.37691 5.66422 9.16265 6.34199L9.27208 6.44365L10.6863 7.85786C11.4673 8.63891 11.4673 9.90524 10.6863 10.6863ZM37.5564 37.5564C36.8108 38.3019 35.6231 38.3358 34.8373 37.658L34.7279 37.5564L33.3137 36.1421C32.5327 35.3611 32.5327 34.0948 33.3137 33.3137C34.0593 32.5682 35.247 32.5343 36.0327 33.212L36.1421 33.3137L37.5564 34.7279C38.3374 35.509 38.3374 36.7753 37.5564 37.5564ZM10.6863 33.3137C11.4318 34.0593 11.4657 35.247 10.788 36.0327L10.6863 36.1421L9.27208 37.5564C8.49103 38.3374 7.2247 38.3374 6.44365 37.5564C5.6981 36.8108 5.66422 35.6231 6.34199 34.8373L6.44365 34.7279L7.85786 33.3137C8.63891 32.5327 9.90524 32.5327 10.6863 33.3137ZM37.5564 6.44365C38.3019 7.1892 38.3358 8.37691 37.658 9.16265L37.5564 9.27208L36.1421 10.6863C35.3611 11.4673 34.0948 11.4673 33.3137 10.6863C32.5682 9.94075 32.5343 8.75303 33.212 7.96729L33.3137 7.85786L34.7279 6.44365C35.509 5.6626 36.7753 5.6626 37.5564 6.44365ZM22 8C14.268 8 8 14.268 8 22C8 29.732 14.268 36 22 36C29.732 36 36 29.732 36 22C36 14.268 29.732 8 22 8Z" fill="url(#paint0_linear_174_42)"/>
</g>
<defs>
<filter id="filter0_i_174_42" x="0" y="0" width="44" height="46" filterUnits="userSpaceOnUse" color-interpolation-filters="sRGB">
<feFlood flood-opacity="0" result="BackgroundImageFix"/>
<feBlend mode="normal" in="SourceGraphic" in2="BackgroundImageFix" result="shape"/>
<feColorMatrix in="SourceAlpha" type="matrix" values="0 0 0 0 0 0 0 0 0 0 0 0 0 0 0 0 0 0 127 0" result="hardAlpha"/>
<feOffset dy="2"/>
<feGaussianBlur stdDeviation="4"/>
<feComposite in2="hardAlpha" operator="arithmetic" k2="-1" k3="1"/>
<feColorMatrix type="matrix" values="0 0 0 0 1 0 0 0 0 1 0 0 0 0 1 0 0 0 1 0"/>
<feBlend mode="overlay" in2="shape" result="effect1_innerShadow_174_42"/>
</filter>
<linearGradient id="paint0_linear_174_42" x1="22" y1="0" x2="22" y2="44" gradientUnits="userSpaceOnUse">
<stop stop-color="#FFD358"/>
<stop offset="1" stop-color="#FA6C21"/>
</linearGradient>
</defs>
</svg>
